<?xml version="1.0" encoding="UTF-8" standalone="no"?>
<!-- Created with Inkscape (http://www.inkscape.org/) -->

<svg
   xmlns:dc="http://purl.org/dc/elements/1.1/"
   xmlns:cc="http://creativecommons.org/ns#"
   xmlns:rdf="http://www.w3.org/1999/02/22-rdf-syntax-ns#"
   xmlns:svg="http://www.w3.org/2000/svg"
   xmlns="http://www.w3.org/2000/svg"
   xmlns:sodipodi="http://sodipodi.sourceforge.net/DTD/sodipodi-0.dtd"
   xmlns:inkscape="http://www.inkscape.org/namespaces/inkscape"
   width="200"
   height="250"
   id="svg2"
   sodipodi:version="0.32"
   inkscape:version="0.91 r13725"
   version="1.0"
   sodipodi:docname="Image_of_none.svg"
   inkscape:output_extension="org.inkscape.output.svg.inkscape">
  <defs
     id="defs4">
    <inkscape:perspective
       sodipodi:type="inkscape:persp3d"
       inkscape:vp_x="0 : 526.18109 : 1"
       inkscape:vp_y="0 : 1000 : 0"
       inkscape:vp_z="744.09448 : 526.18109 : 1"
       inkscape:persp3d-origin="372.04724 : 350.78739 : 1"
       id="perspective10" />
    <inkscape:perspective
       id="perspective2390"
       inkscape:persp3d-origin="372.04724 : 350.78739 : 1"
       inkscape:vp_z="744.09448 : 526.18109 : 1"
       inkscape:vp_y="0 : 1000 : 0"
       inkscape:vp_x="0 : 526.18109 : 1"
       sodipodi:type="inkscape:persp3d" />
  </defs>
  <sodipodi:namedview
     id="base"
     pagecolor="#ffffff"
     bordercolor="#666666"
     borderopacity="1.0"
     inkscape:pageopacity="0.0"
     inkscape:pageshadow="2"
     inkscape:zoom="0.77"
     inkscape:cx="18.738404"
     inkscape:cy="108.47552"
     inkscape:document-units="px"
     inkscape:current-layer="layer1"
     showgrid="false"
     showguides="true"
     inkscape:guide-bbox="true"
     inkscape:window-width="803"
     inkscape:window-height="740"
     inkscape:window-x="184"
     inkscape:window-y="-11"
     inkscape:window-maximized="1" />
  <metadata
     id="metadata7">
    <rdf:RDF>
      <cc:Work
         rdf:about="">
        <dc:format>image/svg+xml</dc:format>
        <dc:type
           rdf:resource="http://purl.org/dc/dcmitype/StillImage" />
        <dc:title></dc:title>
      </cc:Work>
    </rdf:RDF>
  </metadata>
  <g
     inkscape:label="Ebene 1"
     inkscape:groupmode="layer"
     id="layer1">
    <rect
       style="fill:#e6e6e6;fill-opacity:1"
       id="rect2448"
       width="200"
       height="250"
       x="0"
       y="0" />
    <path
       style="fill:#cccccc;fill-rule:evenodd;stroke:none;stroke-width:1.42023003px;stroke-linecap:butt;stroke-linejoin:miter;stroke-opacity:1"
       d="M 98.21875 29.09375 C 95.242496 29.051511 94.46875 29.5625 94.46875 29.5625 C 94.468754 29.5625 78.242486 33.008365 72.34375 36.46875 C 66.445014 39.929133 52.690936 46.419561 49.25 50.3125 C 45.809063 54.205439 48.747496 57.649753 46.78125 59.8125 C 44.815003 61.975242 40.389373 68.049518 39.40625 72.375 C 38.423127 76.700472 36.46875 88.81096 36.46875 91.40625 C 36.468749 94.001552 41.875 95.741957 41.875 100.5 C 41.875 105.25802 47.28125 117.79952 47.28125 122.125 C 47.281252 126.45047 45.815005 129.02971 47.78125 131.625 C 49.747496 134.22029 55.15625 131.625 55.15625 131.625 C 55.15625 131.625 60.570932 146.78466 61.0625 149.8125 C 61.554055 152.84035 60.074383 158.87345 57.125 161.46875 C 54.17563 164.06405 43.859055 164.5 37.46875 164.5 C 33.385734 164.5 15.843722 167.16357 0 168.625 L 0 250.65625 L 200 250.65625 L 200 174.96875 C 187.32239 171.13773 169.74877 166.53887 162.8125 167.09375 C 151.99813 167.95885 145.09375 164.0625 145.09375 164.0625 C 145.09375 164.06251 139.21875 153.69057 139.21875 148.5 C 139.21874 143.30941 142.15033 138.56558 143.625 133.375 C 145.09968 128.18442 144.11564 131.63149 149.03125 129.46875 C 153.94688 127.30602 154.94594 110.44213 155.4375 102.65625 C 155.92907 94.870374 155.435 81.46688 153.46875 75.84375 C 151.5025 70.22062 152.95779 60.258022 150.5 55.5 C 148.04219 50.741965 135.76187 39.052596 132.8125 38.1875 C 129.86312 37.3224 116.11248 31.698942 106.28125 29.96875 C 102.59453 29.319928 100.0045 29.119093 98.21875 29.09375 z "
       id="path2400" />
    <path
       style="fill:#b3b3b3;fill-opacity:1"
       d="M 0 0 L 0 250 L 200 250 L 200 0 L 0 0 z M 3.90625 3.90625 L 196.09375 3.90625 L 196.09375 246.09375 L 3.90625 246.09375 L 3.90625 3.90625 z "
       id="path2454" />
  </g>
</svg>
